<svg width="1920" height="1080" viewBox="0 0 1920 1080" fill="none" xmlns="http://www.w3.org/2000/svg">
<g id="Frame 5">
<path id="Grupa" d="M0 1080V0H1920V1080H0Z" stroke="white" stroke-width="1.5"/>
<path id="BOX" d="M826.5 568L1072.5 255M826.5 568H820V574.5H826.5V568ZM1072.5 255H1344V165H1072.5V255Z" stroke="white" stroke-width="1.5"/>
<path id="BOX_TEXT" d="M1115.87 204.5V187.045H1122.75C1124.08 187.045 1125.21 187.298 1126.14 187.804C1127.07 188.304 1127.78 189 1128.27 189.892C1128.76 190.778 1129.01 191.801 1129.01 192.96C1129.01 194.119 1128.76 195.142 1128.26 196.028C1127.76 196.915 1127.04 197.605 1126.09 198.099C1125.14 198.594 1124 198.841 1122.66 198.841H1118.27V195.884H1122.06C1122.77 195.884 1123.36 195.761 1123.82 195.517C1124.29 195.267 1124.63 194.923 1124.86 194.486C1125.09 194.043 1125.21 193.534 1125.21 192.96C1125.21 192.381 1125.09 191.875 1124.86 191.443C1124.63 191.006 1124.29 190.668 1123.82 190.429C1123.35 190.185 1122.76 190.062 1122.05 190.062H1119.56V204.5H1115.87ZM1147.45 195.773C1147.45 197.676 1147.09 199.295 1146.37 200.631C1145.65 201.966 1144.67 202.986 1143.43 203.69C1142.2 204.389 1140.81 204.739 1139.27 204.739C1137.72 204.739 1136.33 204.386 1135.1 203.682C1133.87 202.977 1132.89 201.957 1132.17 200.622C1131.46 199.287 1131.1 197.67 1131.1 195.773C1131.1 193.869 1131.46 192.25 1132.17 190.915C1132.89 189.58 1133.87 188.562 1135.1 187.864C1136.33 187.159 1137.72 186.807 1139.27 186.807C1140.81 186.807 1142.2 187.159 1143.43 187.864C1144.67 188.562 1145.65 189.58 1146.37 190.915C1147.09 192.25 1147.45 193.869 1147.45 195.773ZM1143.71 195.773C1143.71 194.54 1143.52 193.5 1143.15 192.653C1142.79 191.807 1142.27 191.165 1141.61 190.727C1140.94 190.29 1140.17 190.071 1139.27 190.071C1138.38 190.071 1137.6 190.29 1136.94 190.727C1136.27 191.165 1135.76 191.807 1135.39 192.653C1135.02 193.5 1134.84 194.54 1134.84 195.773C1134.84 197.006 1135.02 198.045 1135.39 198.892C1135.76 199.739 1136.27 200.381 1136.94 200.818C1137.6 201.256 1138.38 201.474 1139.27 201.474C1140.17 201.474 1140.94 201.256 1141.61 200.818C1142.27 200.381 1142.79 199.739 1143.15 198.892C1143.52 198.045 1143.71 197.006 1143.71 195.773ZM1161.75 192.688C1161.64 192.273 1161.47 191.906 1161.25 191.588C1161.04 191.264 1160.77 190.991 1160.46 190.77C1160.15 190.543 1159.8 190.369 1159.4 190.25C1159.01 190.131 1158.58 190.071 1158.1 190.071C1157.21 190.071 1156.42 190.293 1155.75 190.736C1155.08 191.179 1154.55 191.824 1154.18 192.67C1153.8 193.511 1153.62 194.54 1153.62 195.756C1153.62 196.972 1153.8 198.006 1154.17 198.858C1154.54 199.71 1155.06 200.361 1155.74 200.81C1156.41 201.253 1157.21 201.474 1158.13 201.474C1158.97 201.474 1159.68 201.327 1160.27 201.031C1160.87 200.73 1161.32 200.307 1161.64 199.761C1161.95 199.216 1162.11 198.571 1162.11 197.827L1162.86 197.938H1158.36V195.159H1165.67V197.358C1165.67 198.892 1165.34 200.21 1164.7 201.312C1164.05 202.409 1163.16 203.256 1162.02 203.852C1160.88 204.443 1159.58 204.739 1158.12 204.739C1156.48 204.739 1155.04 204.378 1153.8 203.656C1152.56 202.929 1151.6 201.898 1150.91 200.562C1150.22 199.222 1149.87 197.631 1149.87 195.79C1149.87 194.375 1150.08 193.114 1150.49 192.006C1150.9 190.892 1151.48 189.949 1152.23 189.176C1152.97 188.403 1153.84 187.815 1154.83 187.412C1155.81 187.009 1156.89 186.807 1158.04 186.807C1159.03 186.807 1159.95 186.952 1160.8 187.241C1161.65 187.526 1162.41 187.929 1163.07 188.452C1163.73 188.974 1164.27 189.597 1164.7 190.318C1165.12 191.034 1165.39 191.824 1165.5 192.688H1161.75ZM1168.44 204.5V187.045H1172.13V201.457H1179.61V204.5H1168.44ZM1182.06 204.5V187.045H1193.82V190.088H1185.75V194.247H1193.21V197.29H1185.75V201.457H1193.85V204.5H1182.06ZM1202.94 204.5H1196.75V187.045H1202.99C1204.75 187.045 1206.26 187.395 1207.52 188.094C1208.79 188.787 1209.77 189.784 1210.45 191.085C1211.13 192.386 1211.48 193.943 1211.48 195.756C1211.48 197.574 1211.13 199.136 1210.45 200.443C1209.77 201.75 1208.79 202.753 1207.51 203.452C1206.23 204.151 1204.71 204.5 1202.94 204.5ZM1200.44 201.338H1202.79C1203.88 201.338 1204.79 201.145 1205.54 200.759C1206.29 200.366 1206.85 199.761 1207.23 198.943C1207.61 198.119 1207.8 197.057 1207.8 195.756C1207.8 194.466 1207.61 193.412 1207.23 192.594C1206.85 191.776 1206.29 191.173 1205.55 190.787C1204.8 190.401 1203.88 190.207 1202.79 190.207H1200.44V201.338ZM1216.24 204.5H1212.28L1218.31 187.045H1223.06L1229.08 204.5H1225.13L1220.75 191.034H1220.62L1216.24 204.5ZM1215.99 197.639H1225.33V200.52H1215.99V197.639ZM1238.17 187.045H1241.82V199.216C1241.82 200.341 1241.56 201.318 1241.06 202.148C1240.56 202.977 1239.86 203.616 1238.97 204.065C1238.08 204.514 1237.04 204.739 1235.86 204.739C1234.81 204.739 1233.85 204.554 1233 204.185C1232.14 203.81 1231.47 203.241 1230.97 202.48C1230.47 201.713 1230.22 200.75 1230.23 199.591H1233.9C1233.91 200.051 1234 200.446 1234.18 200.776C1234.36 201.099 1234.61 201.349 1234.92 201.526C1235.24 201.696 1235.62 201.781 1236.05 201.781C1236.5 201.781 1236.89 201.685 1237.2 201.491C1237.52 201.293 1237.76 201.003 1237.92 200.622C1238.09 200.241 1238.17 199.773 1238.17 199.216V187.045ZM1256.77 204.739C1255.5 204.739 1254.37 204.52 1253.37 204.082C1252.38 203.639 1251.6 203.031 1251.03 202.259C1250.46 201.48 1250.17 200.582 1250.15 199.565H1253.87C1253.89 199.991 1254.03 200.366 1254.28 200.69C1254.55 201.009 1254.89 201.256 1255.32 201.432C1255.76 201.608 1256.24 201.696 1256.78 201.696C1257.34 201.696 1257.84 201.597 1258.27 201.398C1258.7 201.199 1259.04 200.923 1259.29 200.571C1259.53 200.219 1259.65 199.812 1259.65 199.352C1259.65 198.886 1259.52 198.474 1259.26 198.116C1259.01 197.753 1258.64 197.469 1258.15 197.264C1257.68 197.06 1257.11 196.957 1256.45 196.957H1254.82V194.247H1256.45C1257.01 194.247 1257.5 194.151 1257.92 193.957C1258.36 193.764 1258.69 193.497 1258.93 193.156C1259.17 192.81 1259.29 192.406 1259.29 191.946C1259.29 191.509 1259.18 191.125 1258.97 190.795C1258.77 190.46 1258.48 190.199 1258.1 190.011C1257.73 189.824 1257.3 189.73 1256.81 189.73C1256.31 189.73 1255.85 189.821 1255.43 190.003C1255.02 190.179 1254.69 190.432 1254.44 190.761C1254.19 191.091 1254.05 191.477 1254.04 191.92H1250.5C1250.52 190.915 1250.8 190.028 1251.36 189.261C1251.92 188.494 1252.67 187.895 1253.61 187.463C1254.56 187.026 1255.63 186.807 1256.82 186.807C1258.03 186.807 1259.08 187.026 1259.99 187.463C1260.89 187.901 1261.59 188.491 1262.09 189.236C1262.6 189.974 1262.85 190.804 1262.84 191.724C1262.85 192.702 1262.54 193.517 1261.93 194.17C1261.32 194.824 1260.53 195.239 1259.55 195.415V195.551C1260.84 195.716 1261.81 196.162 1262.48 196.889C1263.16 197.611 1263.49 198.514 1263.49 199.599C1263.49 200.594 1263.21 201.477 1262.63 202.25C1262.05 203.023 1261.26 203.631 1260.25 204.074C1259.24 204.517 1258.08 204.739 1256.77 204.739ZM1272.84 204.739C1271.94 204.733 1271.08 204.582 1270.24 204.287C1269.41 203.991 1268.67 203.511 1268.01 202.847C1267.35 202.182 1266.83 201.301 1266.44 200.205C1266.06 199.108 1265.87 197.761 1265.87 196.165C1265.87 194.699 1266.04 193.389 1266.37 192.236C1266.71 191.077 1267.18 190.094 1267.8 189.287C1268.43 188.48 1269.18 187.866 1270.04 187.446C1270.91 187.02 1271.89 186.807 1272.97 186.807C1274.13 186.807 1275.16 187.034 1276.05 187.489C1276.95 187.937 1277.66 188.548 1278.2 189.321C1278.75 190.094 1279.08 190.96 1279.19 191.92H1275.55C1275.41 191.312 1275.11 190.835 1274.66 190.489C1274.2 190.142 1273.64 189.969 1272.97 189.969C1271.83 189.969 1270.97 190.463 1270.38 191.452C1269.79 192.44 1269.49 193.784 1269.48 195.483H1269.6C1269.86 194.966 1270.22 194.526 1270.66 194.162C1271.11 193.793 1271.62 193.511 1272.18 193.318C1272.76 193.119 1273.36 193.02 1274 193.02C1275.03 193.02 1275.95 193.264 1276.76 193.753C1277.57 194.236 1278.2 194.901 1278.67 195.747C1279.14 196.594 1279.37 197.562 1279.37 198.653C1279.37 199.835 1279.09 200.886 1278.54 201.807C1278 202.727 1277.23 203.449 1276.25 203.972C1275.27 204.489 1274.14 204.744 1272.84 204.739ZM1272.82 201.841C1273.39 201.841 1273.9 201.705 1274.35 201.432C1274.8 201.159 1275.15 200.79 1275.41 200.324C1275.66 199.858 1275.79 199.335 1275.79 198.756C1275.79 198.176 1275.66 197.656 1275.41 197.196C1275.16 196.736 1274.81 196.369 1274.37 196.097C1273.92 195.824 1273.42 195.688 1272.85 195.688C1272.42 195.688 1272.03 195.767 1271.66 195.926C1271.31 196.085 1270.99 196.307 1270.72 196.591C1270.45 196.875 1270.24 197.205 1270.09 197.58C1269.93 197.949 1269.86 198.344 1269.86 198.764C1269.86 199.327 1269.99 199.841 1270.24 200.307C1270.5 200.773 1270.85 201.145 1271.3 201.423C1271.75 201.702 1272.25 201.841 1272.82 201.841ZM1288.83 204.884C1287.36 204.878 1286.1 204.517 1285.04 203.801C1283.99 203.085 1283.18 202.048 1282.62 200.69C1282.05 199.332 1281.77 197.699 1281.78 195.79C1281.78 193.886 1282.06 192.264 1282.62 190.923C1283.19 189.582 1284 188.562 1285.05 187.864C1286.11 187.159 1287.37 186.807 1288.83 186.807C1290.29 186.807 1291.54 187.159 1292.6 187.864C1293.65 188.568 1294.47 189.591 1295.03 190.932C1295.6 192.267 1295.88 193.886 1295.88 195.79C1295.88 197.705 1295.59 199.341 1295.02 200.699C1294.46 202.057 1293.66 203.094 1292.6 203.81C1291.55 204.526 1290.29 204.884 1288.83 204.884ZM1288.83 201.824C1289.83 201.824 1290.63 201.321 1291.22 200.315C1291.82 199.31 1292.12 197.801 1292.11 195.79C1292.11 194.466 1291.97 193.364 1291.7 192.483C1291.43 191.602 1291.05 190.94 1290.56 190.497C1290.07 190.054 1289.49 189.832 1288.83 189.832C1287.83 189.832 1287.04 190.33 1286.44 191.324C1285.85 192.318 1285.54 193.807 1285.54 195.79C1285.54 197.131 1285.67 198.25 1285.94 199.148C1286.21 200.04 1286.6 200.71 1287.09 201.159C1287.58 201.602 1288.16 201.824 1288.83 201.824ZM1184.42 221.065C1184.36 220.378 1184.06 219.844 1183.55 219.463C1183.03 219.082 1182.33 218.892 1181.44 218.892C1180.84 218.892 1180.33 218.977 1179.91 219.148C1179.5 219.312 1179.18 219.543 1178.96 219.838C1178.74 220.134 1178.64 220.469 1178.64 220.844C1178.63 221.156 1178.69 221.429 1178.83 221.662C1178.98 221.895 1179.18 222.097 1179.44 222.267C1179.69 222.432 1179.99 222.577 1180.32 222.702C1180.66 222.821 1181.02 222.923 1181.4 223.009L1182.97 223.384C1183.73 223.554 1184.43 223.781 1185.06 224.065C1185.7 224.349 1186.25 224.699 1186.72 225.114C1187.18 225.528 1187.54 226.017 1187.8 226.58C1188.06 227.142 1188.19 227.787 1188.2 228.514C1188.19 229.582 1187.92 230.509 1187.38 231.293C1186.85 232.071 1186.07 232.676 1185.06 233.108C1184.06 233.534 1182.84 233.747 1181.42 233.747C1180.01 233.747 1178.79 233.531 1177.74 233.099C1176.7 232.668 1175.89 232.028 1175.3 231.182C1174.72 230.33 1174.42 229.276 1174.39 228.02H1177.96C1178 228.605 1178.17 229.094 1178.47 229.486C1178.77 229.872 1179.17 230.165 1179.67 230.364C1180.17 230.557 1180.74 230.653 1181.38 230.653C1182.01 230.653 1182.55 230.562 1183.01 230.381C1183.47 230.199 1183.84 229.946 1184.09 229.622C1184.35 229.298 1184.47 228.926 1184.47 228.506C1184.47 228.114 1184.36 227.784 1184.12 227.517C1183.9 227.25 1183.56 227.023 1183.12 226.835C1182.68 226.648 1182.14 226.477 1181.51 226.324L1179.61 225.847C1178.14 225.489 1176.97 224.929 1176.12 224.168C1175.27 223.406 1174.85 222.381 1174.85 221.091C1174.85 220.034 1175.13 219.111 1175.7 218.321C1176.27 217.531 1177.06 216.915 1178.06 216.472C1179.06 216.028 1180.19 215.807 1181.47 215.807C1182.76 215.807 1183.89 216.028 1184.86 216.472C1185.83 216.915 1186.59 217.531 1187.12 218.321C1187.66 219.111 1187.94 220.026 1187.96 221.065H1184.42ZM1190.68 233.5V216.045H1194.37V230.457H1201.85V233.5H1190.68ZM1207.99 216.045V233.5H1204.3V216.045H1207.99ZM1211.02 233.5V216.045H1214.72V223.741H1214.95L1221.23 216.045H1225.65L1219.17 223.861L1225.73 233.5H1221.31L1216.53 226.324L1214.72 228.54V233.5H1211.02ZM1238.35 216.045H1242.04V227.381C1242.04 228.653 1241.74 229.767 1241.13 230.722C1240.53 231.676 1239.69 232.42 1238.6 232.955C1237.51 233.483 1236.25 233.747 1234.81 233.747C1233.36 233.747 1232.09 233.483 1231.01 232.955C1229.92 232.42 1229.08 231.676 1228.48 230.722C1227.87 229.767 1227.57 228.653 1227.57 227.381V216.045H1231.26V227.065C1231.26 227.73 1231.41 228.321 1231.7 228.838C1231.99 229.355 1232.41 229.761 1232.94 230.057C1233.48 230.352 1234.1 230.5 1234.81 230.5C1235.52 230.5 1236.15 230.352 1236.67 230.057C1237.21 229.761 1237.62 229.355 1237.91 228.838C1238.21 228.321 1238.35 227.73 1238.35 227.065V216.045Z" fill="white"/>
</g>
</svg>
